<svg xmlns="http://www.w3.org/2000/svg" xmlns:xlink="http://www.w3.org/1999/xlink" style="margin:auto;background:#a9a9a9;display:block;z-index:1;position:relative" width="3000" height="1444" preserveAspectRatio="xMidYMid" viewBox="0 0 3000 1444">
<g transform="translate(1500,722) scale(1,1) translate(-1500,-722)"><defs>
<linearGradient id="lg-0.16443334520018626" x1="0" x2="0" y1="0" y2="1">
  <stop stop-color="#3a2033" offset="0.3"></stop>
  <stop stop-color="#27190d" offset="0.6499999999999999"></stop>
  <stop stop-color="#27190d" offset="1"></stop>
</linearGradient>
<linearGradient id="fg-lg-0.16443334520018626" x1="0" x2="0" y1="0" y2="1">
  <stop stop-color="#3a2033" stop-opacity="1" offset="0.3"></stop>
  <stop stop-color="#27190d" stop-opacity="0.66" offset="0.6499999999999999"></stop>
  <stop stop-color="#27190d" stop-opacity="0" offset="1"></stop>
</linearGradient>
<style type="text/css">
  path { fill: none; stroke: #ff5a00; stroke-width: 2px }
</style>
</defs>
<rect x="0" y="0" width="3000" height="1444" fill="url(&quot;#lg-0.16443334520018626&quot;)"></rect><path d="M0 433.2 L-21000 1444" stroke="#FF5A00" fill="none" stroke-width="2px"></path><path d="M23.076923076923077 433.2 L-20653.846153846152 1444" stroke="#FF5A00" fill="none" stroke-width="2px"></path><path d="M46.15384615384615 433.2 L-20307.69230769231 1444" stroke="#FF5A00" fill="none" stroke-width="2px"></path><path d="M69.23076923076923 433.2 L-19961.53846153846 1444" stroke="#FF5A00" fill="none" stroke-width="2px"></path><path d="M92.3076923076923 433.2 L-19615.384615384617 1444" stroke="#FF5A00" fill="none" stroke-width="2px"></path><path d="M115.38461538461539 433.2 L-19269.23076923077 1444" stroke="#FF5A00" fill="none" stroke-width="2px"></path><path d="M138.46153846153845 433.2 L-18923.076923076922 1444" stroke="#FF5A00" fill="none" stroke-width="2px"></path><path d="M161.53846153846155 433.2 L-18576.923076923078 1444" stroke="#FF5A00" fill="none" stroke-width="2px"></path><path d="M184.6153846153846 433.2 L-18230.76923076923 1444" stroke="#FF5A00" fill="none" stroke-width="2px"></path><path d="M207.69230769230768 433.2 L-17884.615384615383 1444" stroke="#FF5A00" fill="none" stroke-width="2px"></path><path d="M230.76923076923077 433.2 L-17538.46153846154 1444" stroke="#FF5A00" fill="none" stroke-width="2px"></path><path d="M253.84615384615384 433.2 L-17192.30769230769 1444" stroke="#FF5A00" fill="none" stroke-width="2px"></path><path d="M276.9230769230769 433.2 L-16846.153846153844 1444" stroke="#FF5A00" fill="none" stroke-width="2px"></path><path d="M300 433.2 L-16500 1444" stroke="#FF5A00" fill="none" stroke-width="2px"></path><path d="M323.0769230769231 433.2 L-16153.846153846154 1444" stroke="#FF5A00" fill="none" stroke-width="2px"></path><path d="M346.15384615384613 433.2 L-15807.692307692309 1444" stroke="#FF5A00" fill="none" stroke-width="2px"></path><path d="M369.2307692307692 433.2 L-15461.538461538461 1444" stroke="#FF5A00" fill="none" stroke-width="2px"></path><path d="M392.3076923076923 433.2 L-15115.384615384615 1444" stroke="#FF5A00" fill="none" stroke-width="2px"></path><path d="M415.38461538461536 433.2 L-14769.23076923077 1444" stroke="#FF5A00" fill="none" stroke-width="2px"></path><path d="M438.46153846153845 433.2 L-14423.076923076922 1444" stroke="#FF5A00" fill="none" stroke-width="2px"></path><path d="M461.53846153846155 433.2 L-14076.923076923078 1444" stroke="#FF5A00" fill="none" stroke-width="2px"></path><path d="M484.61538461538464 433.2 L-13730.76923076923 1444" stroke="#FF5A00" fill="none" stroke-width="2px"></path><path d="M507.6923076923077 433.2 L-13384.615384615385 1444" stroke="#FF5A00" fill="none" stroke-width="2px"></path><path d="M530.7692307692307 433.2 L-13038.461538461539 1444" stroke="#FF5A00" fill="none" stroke-width="2px"></path><path d="M553.8461538461538 433.2 L-12692.307692307691 1444" stroke="#FF5A00" fill="none" stroke-width="2px"></path><path d="M576.9230769230769 433.2 L-12346.153846153846 1444" stroke="#FF5A00" fill="none" stroke-width="2px"></path><path d="M600 433.2 L-12000 1444" stroke="#FF5A00" fill="none" stroke-width="2px"></path><path d="M623.0769230769231 433.2 L-11653.846153846154 1444" stroke="#FF5A00" fill="none" stroke-width="2px"></path><path d="M646.1538461538462 433.2 L-11307.692307692309 1444" stroke="#FF5A00" fill="none" stroke-width="2px"></path><path d="M669.2307692307693 433.2 L-10961.538461538461 1444" stroke="#FF5A00" fill="none" stroke-width="2px"></path><path d="M692.3076923076923 433.2 L-10615.384615384615 1444" stroke="#FF5A00" fill="none" stroke-width="2px"></path><path d="M715.3846153846154 433.2 L-10269.23076923077 1444" stroke="#FF5A00" fill="none" stroke-width="2px"></path><path d="M738.4615384615385 433.2 L-9923.076923076924 1444" stroke="#FF5A00" fill="none" stroke-width="2px"></path><path d="M761.5384615384615 433.2 L-9576.923076923076 1444" stroke="#FF5A00" fill="none" stroke-width="2px"></path><path d="M784.6153846153846 433.2 L-9230.76923076923 1444" stroke="#FF5A00" fill="none" stroke-width="2px"></path><path d="M807.6923076923077 433.2 L-8884.615384615385 1444" stroke="#FF5A00" fill="none" stroke-width="2px"></path><path d="M830.7692307692307 433.2 L-8538.461538461539 1444" stroke="#FF5A00" fill="none" stroke-width="2px"></path><path d="M853.8461538461538 433.2 L-8192.307692307691 1444" stroke="#FF5A00" fill="none" stroke-width="2px"></path><path d="M876.9230769230769 433.2 L-7846.153846153846 1444" stroke="#FF5A00" fill="none" stroke-width="2px"></path><path d="M900 433.2 L-7500 1444" stroke="#FF5A00" fill="none" stroke-width="2px"></path><path d="M923.0769230769231 433.2 L-7153.846153846154 1444" stroke="#FF5A00" fill="none" stroke-width="2px"></path><path d="M946.1538461538462 433.2 L-6807.6923076923085 1444" stroke="#FF5A00" fill="none" stroke-width="2px"></path><path d="M969.2307692307693 433.2 L-6461.538461538461 1444" stroke="#FF5A00" fill="none" stroke-width="2px"></path><path d="M992.3076923076923 433.2 L-6115.384615384615 1444" stroke="#FF5A00" fill="none" stroke-width="2px"></path><path d="M1015.3846153846154 433.2 L-5769.2307692307695 1444" stroke="#FF5A00" fill="none" stroke-width="2px"></path><path d="M1038.4615384615386 433.2 L-5423.076923076924 1444" stroke="#FF5A00" fill="none" stroke-width="2px"></path><path d="M1061.5384615384614 433.2 L-5076.923076923076 1444" stroke="#FF5A00" fill="none" stroke-width="2px"></path><path d="M1084.6153846153845 433.2 L-4730.7692307692305 1444" stroke="#FF5A00" fill="none" stroke-width="2px"></path><path d="M1107.6923076923076 433.2 L-4384.615384615383 1444" stroke="#FF5A00" fill="none" stroke-width="2px"></path><path d="M1130.7692307692307 433.2 L-4038.461538461539 1444" stroke="#FF5A00" fill="none" stroke-width="2px"></path><path d="M1153.8461538461538 433.2 L-3692.3076923076915 1444" stroke="#FF5A00" fill="none" stroke-width="2px"></path><path d="M1176.923076923077 433.2 L-3346.1538461538476 1444" stroke="#FF5A00" fill="none" stroke-width="2px"></path><path d="M1200 433.2 L-3000 1444" stroke="#FF5A00" fill="none" stroke-width="2px"></path><path d="M1223.076923076923 433.2 L-2653.8461538461524 1444" stroke="#FF5A00" fill="none" stroke-width="2px"></path><path d="M1246.1538461538462 433.2 L-2307.6923076923085 1444" stroke="#FF5A00" fill="none" stroke-width="2px"></path><path d="M1269.2307692307693 433.2 L-1961.538461538461 1444" stroke="#FF5A00" fill="none" stroke-width="2px"></path><path d="M1292.3076923076924 433.2 L-1615.384615384617 1444" stroke="#FF5A00" fill="none" stroke-width="2px"></path><path d="M1315.3846153846155 433.2 L-1269.2307692307695 1444" stroke="#FF5A00" fill="none" stroke-width="2px"></path><path d="M1338.4615384615386 433.2 L-923.076923076922 1444" stroke="#FF5A00" fill="none" stroke-width="2px"></path><path d="M1361.5384615384614 433.2 L-576.923076923078 1444" stroke="#FF5A00" fill="none" stroke-width="2px"></path><path d="M1384.6153846153845 433.2 L-230.7692307692305 1444" stroke="#FF5A00" fill="none" stroke-width="2px"></path><path d="M1407.6923076923076 433.2 L115.38461538461706 1444" stroke="#FF5A00" fill="none" stroke-width="2px"></path><path d="M1430.7692307692307 433.2 L461.538461538461 1444" stroke="#FF5A00" fill="none" stroke-width="2px"></path><path d="M1453.8461538461538 433.2 L807.6923076923085 1444" stroke="#FF5A00" fill="none" stroke-width="2px"></path><path d="M1476.923076923077 433.2 L1153.8461538461524 1444" stroke="#FF5A00" fill="none" stroke-width="2px"></path><path d="M1500 433.2 L1500 1444" stroke="#FF5A00" fill="none" stroke-width="2px"></path><path d="M1523.076923076923 433.2 L1846.1538461538476 1444" stroke="#FF5A00" fill="none" stroke-width="2px"></path><path d="M1546.1538461538462 433.2 L2192.3076923076915 1444" stroke="#FF5A00" fill="none" stroke-width="2px"></path><path d="M1569.2307692307693 433.2 L2538.461538461539 1444" stroke="#FF5A00" fill="none" stroke-width="2px"></path><path d="M1592.3076923076924 433.2 L2884.615384615383 1444" stroke="#FF5A00" fill="none" stroke-width="2px"></path><path d="M1615.3846153846155 433.2 L3230.7692307692305 1444" stroke="#FF5A00" fill="none" stroke-width="2px"></path><path d="M1638.4615384615386 433.2 L3576.923076923078 1444" stroke="#FF5A00" fill="none" stroke-width="2px"></path><path d="M1661.5384615384614 433.2 L3923.076923076922 1444" stroke="#FF5A00" fill="none" stroke-width="2px"></path><path d="M1684.6153846153845 433.2 L4269.2307692307695 1444" stroke="#FF5A00" fill="none" stroke-width="2px"></path><path d="M1707.6923076923076 433.2 L4615.384615384617 1444" stroke="#FF5A00" fill="none" stroke-width="2px"></path><path d="M1730.7692307692307 433.2 L4961.538461538461 1444" stroke="#FF5A00" fill="none" stroke-width="2px"></path><path d="M1753.8461538461538 433.2 L5307.6923076923085 1444" stroke="#FF5A00" fill="none" stroke-width="2px"></path><path d="M1776.923076923077 433.2 L5653.846153846152 1444" stroke="#FF5A00" fill="none" stroke-width="2px"></path><path d="M1800 433.2 L6000 1444" stroke="#FF5A00" fill="none" stroke-width="2px"></path><path d="M1823.076923076923 433.2 L6346.153846153848 1444" stroke="#FF5A00" fill="none" stroke-width="2px"></path><path d="M1846.1538461538462 433.2 L6692.3076923076915 1444" stroke="#FF5A00" fill="none" stroke-width="2px"></path><path d="M1869.2307692307693 433.2 L7038.461538461539 1444" stroke="#FF5A00" fill="none" stroke-width="2px"></path><path d="M1892.3076923076924 433.2 L7384.615384615383 1444" stroke="#FF5A00" fill="none" stroke-width="2px"></path><path d="M1915.3846153846155 433.2 L7730.7692307692305 1444" stroke="#FF5A00" fill="none" stroke-width="2px"></path><path d="M1938.4615384615386 433.2 L8076.923076923078 1444" stroke="#FF5A00" fill="none" stroke-width="2px"></path><path d="M1961.5384615384614 433.2 L8423.076923076922 1444" stroke="#FF5A00" fill="none" stroke-width="2px"></path><path d="M1984.6153846153845 433.2 L8769.23076923077 1444" stroke="#FF5A00" fill="none" stroke-width="2px"></path><path d="M2007.6923076923076 433.2 L9115.384615384617 1444" stroke="#FF5A00" fill="none" stroke-width="2px"></path><path d="M2030.7692307692307 433.2 L9461.538461538461 1444" stroke="#FF5A00" fill="none" stroke-width="2px"></path><path d="M2053.846153846154 433.2 L9807.692307692309 1444" stroke="#FF5A00" fill="none" stroke-width="2px"></path><path d="M2076.923076923077 433.2 L10153.846153846152 1444" stroke="#FF5A00" fill="none" stroke-width="2px"></path><path d="M2100 433.2 L10500 1444" stroke="#FF5A00" fill="none" stroke-width="2px"></path><path d="M2123.076923076923 433.2 L10846.153846153848 1444" stroke="#FF5A00" fill="none" stroke-width="2px"></path><path d="M2146.153846153846 433.2 L11192.307692307691 1444" stroke="#FF5A00" fill="none" stroke-width="2px"></path><path d="M2169.230769230769 433.2 L11538.461538461539 1444" stroke="#FF5A00" fill="none" stroke-width="2px"></path><path d="M2192.3076923076924 433.2 L11884.615384615383 1444" stroke="#FF5A00" fill="none" stroke-width="2px"></path><path d="M2215.3846153846152 433.2 L12230.769230769234 1444" stroke="#FF5A00" fill="none" stroke-width="2px"></path><path d="M2238.4615384615386 433.2 L12576.923076923078 1444" stroke="#FF5A00" fill="none" stroke-width="2px"></path><path d="M2261.5384615384614 433.2 L12923.076923076922 1444" stroke="#FF5A00" fill="none" stroke-width="2px"></path><path d="M2284.6153846153848 433.2 L13269.230769230766 1444" stroke="#FF5A00" fill="none" stroke-width="2px"></path><path d="M2307.6923076923076 433.2 L13615.384615384617 1444" stroke="#FF5A00" fill="none" stroke-width="2px"></path><path d="M2330.769230769231 433.2 L13961.538461538461 1444" stroke="#FF5A00" fill="none" stroke-width="2px"></path><path d="M2353.846153846154 433.2 L14307.692307692305 1444" stroke="#FF5A00" fill="none" stroke-width="2px"></path><path d="M2376.923076923077 433.2 L14653.846153846156 1444" stroke="#FF5A00" fill="none" stroke-width="2px"></path><path d="M2400 433.2 L15000 1444" stroke="#FF5A00" fill="none" stroke-width="2px"></path><path d="M2423.076923076923 433.2 L15346.153846153844 1444" stroke="#FF5A00" fill="none" stroke-width="2px"></path><path d="M2446.153846153846 433.2 L15692.307692307695 1444" stroke="#FF5A00" fill="none" stroke-width="2px"></path><path d="M2469.230769230769 433.2 L16038.461538461539 1444" stroke="#FF5A00" fill="none" stroke-width="2px"></path><path d="M2492.3076923076924 433.2 L16384.615384615383 1444" stroke="#FF5A00" fill="none" stroke-width="2px"></path><path d="M2515.3846153846152 433.2 L16730.769230769234 1444" stroke="#FF5A00" fill="none" stroke-width="2px"></path><path d="M2538.4615384615386 433.2 L17076.923076923078 1444" stroke="#FF5A00" fill="none" stroke-width="2px"></path><path d="M2561.5384615384614 433.2 L17423.076923076922 1444" stroke="#FF5A00" fill="none" stroke-width="2px"></path><path d="M2584.6153846153848 433.2 L17769.230769230766 1444" stroke="#FF5A00" fill="none" stroke-width="2px"></path><path d="M2607.6923076923076 433.2 L18115.384615384617 1444" stroke="#FF5A00" fill="none" stroke-width="2px"></path><path d="M2630.769230769231 433.2 L18461.53846153846 1444" stroke="#FF5A00" fill="none" stroke-width="2px"></path><path d="M2653.846153846154 433.2 L18807.692307692305 1444" stroke="#FF5A00" fill="none" stroke-width="2px"></path><path d="M2676.923076923077 433.2 L19153.846153846156 1444" stroke="#FF5A00" fill="none" stroke-width="2px"></path><path d="M2700 433.2 L19500 1444" stroke="#FF5A00" fill="none" stroke-width="2px"></path><path d="M2723.076923076923 433.2 L19846.153846153844 1444" stroke="#FF5A00" fill="none" stroke-width="2px"></path><path d="M2746.153846153846 433.2 L20192.307692307695 1444" stroke="#FF5A00" fill="none" stroke-width="2px"></path><path d="M2769.230769230769 433.2 L20538.46153846154 1444" stroke="#FF5A00" fill="none" stroke-width="2px"></path><path d="M2792.3076923076924 433.2 L20884.615384615383 1444" stroke="#FF5A00" fill="none" stroke-width="2px"></path><path d="M2815.3846153846152 433.2 L21230.769230769234 1444" stroke="#FF5A00" fill="none" stroke-width="2px"></path><path d="M2838.4615384615386 433.2 L21576.923076923078 1444" stroke="#FF5A00" fill="none" stroke-width="2px"></path><path d="M2861.5384615384614 433.2 L21923.076923076922 1444" stroke="#FF5A00" fill="none" stroke-width="2px"></path><path d="M2884.6153846153848 433.2 L22269.230769230766 1444" stroke="#FF5A00" fill="none" stroke-width="2px"></path><path d="M2907.6923076923076 433.2 L22615.384615384617 1444" stroke="#FF5A00" fill="none" stroke-width="2px"></path><path d="M2930.769230769231 433.2 L22961.53846153846 1444" stroke="#FF5A00" fill="none" stroke-width="2px"></path><path d="M2953.846153846154 433.2 L23307.692307692305 1444" stroke="#FF5A00" fill="none" stroke-width="2px"></path><path d="M2976.923076923077 433.2 L23653.846153846156 1444" stroke="#FF5A00" fill="none" stroke-width="2px"></path><path d="M3000 433.2 L24000 1444" stroke="#FF5A00" fill="none" stroke-width="2px"></path><g>
<path d="M0 433.2 L3000 433.2" stroke="#FF5A00" fill="none" stroke-width="2px"></path>
<animateTransform attributeName="transform" type="translate" repeatCount="indefinite" calcMode="linear" keyTimes="0;1" values="0 0;0 7.655763313609467" begin="0s" dur="0.8333333333333334s"></animateTransform>

</g><g>
<path d="M0 440.85576331360943 L3000 440.85576331360943" stroke="#FF5A00" fill="none" stroke-width="2px"></path>
<animateTransform attributeName="transform" type="translate" repeatCount="indefinite" calcMode="linear" keyTimes="0;1" values="0 0;0 15.311526627218935" begin="0s" dur="0.8333333333333334s"></animateTransform>

</g><g>
<path d="M0 456.16728994082837 L3000 456.16728994082837" stroke="#FF5A00" fill="none" stroke-width="2px"></path>
<animateTransform attributeName="transform" type="translate" repeatCount="indefinite" calcMode="linear" keyTimes="0;1" values="0 0;0 22.9672899408284" begin="0s" dur="0.8333333333333334s"></animateTransform>

</g><g>
<path d="M0 479.13457988165675 L3000 479.13457988165675" stroke="#FF5A00" fill="none" stroke-width="2px"></path>
<animateTransform attributeName="transform" type="translate" repeatCount="indefinite" calcMode="linear" keyTimes="0;1" values="0 0;0 30.623053254437867" begin="0s" dur="0.8333333333333334s"></animateTransform>

</g><g>
<path d="M0 509.7576331360946 L3000 509.7576331360946" stroke="#FF5A00" fill="none" stroke-width="2px"></path>
<animateTransform attributeName="transform" type="translate" repeatCount="indefinite" calcMode="linear" keyTimes="0;1" values="0 0;0 38.27881656804733" begin="0s" dur="0.8333333333333334s"></animateTransform>

</g><g>
<path d="M0 548.036449704142 L3000 548.036449704142" stroke="#FF5A00" fill="none" stroke-width="2px"></path>
<animateTransform attributeName="transform" type="translate" repeatCount="indefinite" calcMode="linear" keyTimes="0;1" values="0 0;0 45.9345798816568" begin="0s" dur="0.8333333333333334s"></animateTransform>

</g><g>
<path d="M0 593.9710295857988 L3000 593.9710295857988" stroke="#FF5A00" fill="none" stroke-width="2px"></path>
<animateTransform attributeName="transform" type="translate" repeatCount="indefinite" calcMode="linear" keyTimes="0;1" values="0 0;0 53.59034319526627" begin="0s" dur="0.8333333333333334s"></animateTransform>

</g><g>
<path d="M0 647.5613727810651 L3000 647.5613727810651" stroke="#FF5A00" fill="none" stroke-width="2px"></path>
<animateTransform attributeName="transform" type="translate" repeatCount="indefinite" calcMode="linear" keyTimes="0;1" values="0 0;0 61.24610650887574" begin="0s" dur="0.8333333333333334s"></animateTransform>

</g><g>
<path d="M0 708.8074792899408 L3000 708.8074792899408" stroke="#FF5A00" fill="none" stroke-width="2px"></path>
<animateTransform attributeName="transform" type="translate" repeatCount="indefinite" calcMode="linear" keyTimes="0;1" values="0 0;0 68.90186982248521" begin="0s" dur="0.8333333333333334s"></animateTransform>

</g><g>
<path d="M0 777.709349112426 L3000 777.709349112426" stroke="#FF5A00" fill="none" stroke-width="2px"></path>
<animateTransform attributeName="transform" type="translate" repeatCount="indefinite" calcMode="linear" keyTimes="0;1" values="0 0;0 76.55763313609468" begin="0s" dur="0.8333333333333334s"></animateTransform>

</g><g>
<path d="M0 854.2669822485207 L3000 854.2669822485207" stroke="#FF5A00" fill="none" stroke-width="2px"></path>
<animateTransform attributeName="transform" type="translate" repeatCount="indefinite" calcMode="linear" keyTimes="0;1" values="0 0;0 84.21339644970415" begin="0s" dur="0.8333333333333334s"></animateTransform>

</g><g>
<path d="M0 938.4803786982249 L3000 938.4803786982249" stroke="#FF5A00" fill="none" stroke-width="2px"></path>
<animateTransform attributeName="transform" type="translate" repeatCount="indefinite" calcMode="linear" keyTimes="0;1" values="0 0;0 91.86915976331362" begin="0s" dur="0.8333333333333334s"></animateTransform>

</g><g>
<path d="M0 1030.3495384615385 L3000 1030.3495384615385" stroke="#FF5A00" fill="none" stroke-width="2px"></path>
<animateTransform attributeName="transform" type="translate" repeatCount="indefinite" calcMode="linear" keyTimes="0;1" values="0 0;0 99.52492307692309" begin="0s" dur="0.8333333333333334s"></animateTransform>

</g><g>
<path d="M0 1129.8744615384617 L3000 1129.8744615384617" stroke="#FF5A00" fill="none" stroke-width="2px"></path>
<animateTransform attributeName="transform" type="translate" repeatCount="indefinite" calcMode="linear" keyTimes="0;1" values="0 0;0 107.18068639053256" begin="0s" dur="0.8333333333333334s"></animateTransform>

</g><g>
<path d="M0 1237.0551479289943 L3000 1237.0551479289943" stroke="#FF5A00" fill="none" stroke-width="2px"></path>
<animateTransform attributeName="transform" type="translate" repeatCount="indefinite" calcMode="linear" keyTimes="0;1" values="0 0;0 114.83644970414203" begin="0s" dur="0.8333333333333334s"></animateTransform>

</g><g>
<path d="M0 1351.8915976331364 L3000 1351.8915976331364" stroke="#FF5A00" fill="none" stroke-width="2px"></path>
<animateTransform attributeName="transform" type="translate" repeatCount="indefinite" calcMode="linear" keyTimes="0;1" values="0 0;0 122.49221301775148" begin="0s" dur="0.8333333333333334s"></animateTransform>

</g><g>
<path d="M0 1474.3838106508879 L3000 1474.3838106508879" stroke="#FF5A00" fill="none" stroke-width="2px"></path>
<animateTransform attributeName="transform" type="translate" repeatCount="indefinite" calcMode="linear" keyTimes="0;1" values="0 0;0 130.14797633136095" begin="0s" dur="0.8333333333333334s"></animateTransform>

</g><rect x="0" y="0" width="3000" height="1444" fill="url(&quot;#fg-lg-0.16443334520018626&quot;)"></rect></g>
</svg>